<svg xmlns="http://www.w3.org/2000/svg" viewBox="0 0 338.16 174.62"><defs><style>.cls-1{fill:#231f20;}.cls-2{fill:#fff;}</style></defs><g id="Layer_2" data-name="Layer 2"><g id="Lets_play" data-name="Lets play"><polygon class="cls-1" points="0 0 0 174.62 168.2 144.49 338.16 174.62 338.16 0 0 0"/><path class="cls-2" d="M47.69,68.63H55.8c4.73,0,7.59,2.8,7.59,6.86v.05c0,4.6-3.57,7-8,7H52.05v6H47.69Zm7.82,10c2.19,0,3.46-1.3,3.46-3v-.06c0-1.95-1.36-3-3.54-3H52.05v6.06Z"/><path class="cls-2" d="M67.19,68.63h4.37V84.5h9.89v4H67.19Z"/><path class="cls-2" d="M92.11,68.48h4l8.51,20h-4.57L98.26,84H89.87l-1.82,4.45H83.6ZM96.7,80.17l-2.64-6.44-2.63,6.44Z"/><path class="cls-2" d="M110.73,80.65l-7.63-12h5.11l4.73,8,4.82-8h5L115.1,80.56v7.91h-4.37Z"/><path class="cls-2" d="M139.7,72.65h-6v-4H150.1v4h-6V88.47H139.7Z"/><path class="cls-2" d="M154,68.63h4.37v7.85h8.05V68.63h4.37V88.47h-4.37v-8h-8.05v8H154Z"/><path class="cls-2" d="M176.12,68.63h15v3.88H180.46v4h9.36v3.88h-9.36v4.17h10.78v3.88H176.12Z"/><path class="cls-2" d="M203.88,78.61v-.06a10.18,10.18,0,0,1,10.4-10.26,10.9,10.9,0,0,1,7.8,2.72l-2.75,3.31a7.34,7.34,0,0,0-5.19-2,6,6,0,0,0-5.7,6.18v.06a5.94,5.94,0,0,0,6,6.29,6.9,6.9,0,0,0,4.11-1.19V80.82h-4.39V77.05h8.62v8.62a13,13,0,0,1-8.48,3.14C208.13,88.81,203.88,84.47,203.88,78.61Z"/><path class="cls-2" d="M234.35,68.48h4l8.51,20h-4.56L240.5,84h-8.39l-1.82,4.45h-4.45Zm4.59,11.69-2.64-6.44-2.63,6.44Z"/><path class="cls-2" d="M250.5,68.63h4.71L260.43,77l5.21-8.39h4.71V88.47H266v-13L260.43,84h-.12l-5.52-8.39V88.47H250.5Z"/><path class="cls-2" d="M275.68,68.63h15v3.88H280v4h9.36v3.88H280v4.17h10.78v3.88H275.68Z"/></g></g></svg>