<svg xmlns="http://www.w3.org/2000/svg" viewBox="0 0 338.16 174.62"><defs><style>.cls-1{fill:#231f20;}.cls-2{fill:#fff;}</style></defs><g id="Layer_2" data-name="Layer 2"><g id="Lets_play_13" data-name="Lets play 13"><polygon class="cls-1" points="0 0 0 174.62 168.2 144.49 338.16 174.62 338.16 0 0 0"/><path class="cls-2" d="M116.75,88.45a12.75,12.75,0,0,0,6.42,1.81c3.66,0,5.8-1.94,5.8-4.74,0-2.59-1.48-4.07-5.23-5.51-4.52-1.61-7.32-4-7.32-7.86,0-4.32,3.58-7.53,9-7.53A12.57,12.57,0,0,1,131.52,66l-1,2.92a10.91,10.91,0,0,0-5.26-1.32c-3.79,0-5.23,2.26-5.23,4.16,0,2.59,1.69,3.87,5.51,5.35,4.7,1.81,7.08,4.07,7.08,8.15,0,4.28-3.17,8-9.71,8a14.33,14.33,0,0,1-7.08-1.77Z"/><path class="cls-2" d="M143.62,68.12h-8.43V65.07h20.53v3.05h-8.48V92.81h-3.62Z"/><path class="cls-2" d="M161,84.08l-2.88,8.73h-3.7l9.42-27.74h4.32l9.47,27.74h-3.83l-3-8.73Zm9.1-2.79-2.72-8c-.62-1.81-1-3.46-1.44-5.06h-.08c-.41,1.65-.87,3.33-1.4,5l-2.72,8Z"/><path class="cls-2" d="M182.56,65.44a37.33,37.33,0,0,1,6.87-.57c3.83,0,6.3.69,8,2.26a6.9,6.9,0,0,1,2.18,5.27,7.27,7.27,0,0,1-5.23,7.07v.13c2.14.74,3.42,2.71,4.08,5.59.9,3.87,1.56,6.55,2.14,7.62h-3.71a36,36,0,0,1-1.85-6.63c-.82-3.83-2.3-5.27-5.56-5.39h-3.37v12h-3.58Zm3.58,12.64h3.66c3.83,0,6.26-2.1,6.26-5.27,0-3.58-2.6-5.15-6.38-5.19a15,15,0,0,0-3.54.33Z"/><path class="cls-2" d="M211.16,68.12h-8.43V65.07h20.53v3.05h-8.48V92.81h-3.62Z"/></g></g></svg>