<svg xmlns="http://www.w3.org/2000/svg" viewBox="0 0 55.47 34.67"><defs><style>.cls-1{fill:#221f1f;}.cls-2{fill:#fff;}</style></defs><g id="Layer_2" data-name="Layer 2"><g id="Layer_1-2" data-name="Layer 1"><polygon class="cls-1" points="0 0 0 34.67 27.59 28.69 55.47 34.67 55.47 0 0 0"/><path class="cls-2" d="M8,12.43h2.48A2.23,2.23,0,0,1,12,13a1.58,1.58,0,0,1,.47,1.17v0a1.6,1.6,0,0,1-1.17,1.59l1.33,1.84h-1.4l-1.16-1.65H9.15v1.65H8Zm2.4,2.49c.58,0,.92-.29.92-.72v0c0-.48-.36-.73-.94-.73H9.15v1.47Z"/><path class="cls-2" d="M13.64,12.43h4.1v1H14.83v1.05h2.56v1H14.83v1.08h3v1H13.64Z"/><path class="cls-2" d="M18.68,15h0a2.72,2.72,0,0,1,2.84-2.66,3.08,3.08,0,0,1,2.14.71l-.76.85a2.06,2.06,0,0,0-1.42-.52A1.58,1.58,0,0,0,19.93,15v0a1.58,1.58,0,0,0,1.64,1.63,2,2,0,0,0,1.12-.31v-.74h-1.2v-1h2.36v2.23a3.64,3.64,0,0,1-2.32.81A2.64,2.64,0,0,1,18.68,15Z"/><path class="cls-2" d="M25.13,12.43h1.2v5.14h-1.2Z"/><path class="cls-2" d="M27.39,16.82l.7-.8a2.57,2.57,0,0,0,1.62.62c.49,0,.79-.18.79-.48v0c0-.28-.19-.43-1.1-.65-1.09-.27-1.79-.55-1.79-1.57v0c0-.93.79-1.54,1.9-1.54a3.23,3.23,0,0,1,2,.65l-.62.85a2.59,2.59,0,0,0-1.41-.51c-.46,0-.7.2-.7.45v0c0,.33.23.44,1.17.67,1.1.27,1.72.65,1.72,1.54v0c0,1-.82,1.59-2,1.59A3.56,3.56,0,0,1,27.39,16.82Z"/><path class="cls-2" d="M34,13.47H32.3v-1h4.5v1H35.14v4.1H34Z"/><path class="cls-2" d="M37.79,12.43h4.09v1H39v1.05h2.55v1H39v1.08h2.94v1H37.79Z"/><path class="cls-2" d="M43.07,12.43h2.48a2.23,2.23,0,0,1,1.58.52,1.57,1.57,0,0,1,.46,1.17v0a1.6,1.6,0,0,1-1.16,1.59l1.33,1.84h-1.4L45.2,15.92h-.94v1.65H43.07Zm2.4,2.49c.58,0,.91-.29.91-.72v0c0-.48-.35-.73-.93-.73H44.26v1.47Z"/></g></g></svg>