<svg xmlns="http://www.w3.org/2000/svg" viewBox="0 0 55.47 34.67"><defs><style>.cls-1{fill:#221f1f;}.cls-2{fill:#fff;}</style></defs><g id="Layer_2" data-name="Layer 2"><g id="Layer_1-2" data-name="Layer 1"><polygon class="cls-1" points="0 0 0 34.67 27.59 28.69 55.47 34.67 55.47 0 0 0"/><path class="cls-2" d="M12.06,16.26l.7-.8a2.53,2.53,0,0,0,1.62.63c.49,0,.79-.19.79-.49h0c0-.29-.19-.43-1.1-.65-1.09-.27-1.8-.55-1.8-1.57v0c0-.93.8-1.55,1.9-1.55a3.26,3.26,0,0,1,2,.66l-.62.85a2.59,2.59,0,0,0-1.41-.51c-.46,0-.7.2-.7.45h0c0,.34.23.45,1.17.68,1.1.27,1.72.64,1.72,1.54h0c0,1-.82,1.6-2,1.6A3.52,3.52,0,0,1,12.06,16.26Z"/><path class="cls-2" d="M17.6,11.88h1.2V17H17.6Z"/><path class="cls-2" d="M20.07,14.46v0a2.71,2.71,0,0,1,2.85-2.65,3.12,3.12,0,0,1,2.13.7l-.76.86a2,2,0,0,0-1.41-.52,1.58,1.58,0,0,0-1.56,1.6h0A1.58,1.58,0,0,0,23,16.07a2,2,0,0,0,1.13-.3V15H22.88v-1h2.36v2.23a3.67,3.67,0,0,1-2.32.81A2.64,2.64,0,0,1,20.07,14.46Z"/><path class="cls-2" d="M26.55,11.88h1.1L30.19,15V11.88h1.18V17h-1l-2.62-3.26V17H26.55Z"/><path class="cls-2" d="M35.37,11.88h1.19V17H35.37Z"/><path class="cls-2" d="M38.07,11.88h1.1L41.72,15V11.88H42.9V17h-1l-2.63-3.26V17H38.07Z"/></g></g></svg>