<svg xmlns="http://www.w3.org/2000/svg" viewBox="0 0 167.95 104.97"><defs><style>.cls-1{fill:#231f20;}.cls-2{fill:#fff;}</style></defs><g id="Layer_2" data-name="Layer 2"><g id="THE_PRIVACY_copy" data-name="THE PRIVACY copy"><polygon class="cls-1" points="0 0 0 104.97 83.54 86.86 167.95 104.97 167.95 0 0 0"/><path class="cls-2" d="M32.05,31.44H48v3.93H36.66v4.07h10v3.93h-10v4.21H48.17v3.93H32.05Z"/><path class="cls-2" d="M53,31.44h4.3L67.2,43.8V31.44h4.6V51.51h-4L57.56,38.75V51.51H53Z"/><path class="cls-2" d="M82.44,35.51H76V31.44H93.56v4.07H87.1v16H82.44Z"/><path class="cls-2" d="M97.74,31.44h16v3.93H102.34v4.07h10v3.93h-10v4.21h11.52v3.93H97.74Z"/><path class="cls-2" d="M118.64,31.44h9.7a8.66,8.66,0,0,1,6.18,2,6,6,0,0,1,1.82,4.58v.06a6,6,0,0,1-1.26,4,7.35,7.35,0,0,1-3.29,2.25L137,51.51h-5.45L127,45.09h-3.66v6.42h-4.67ZM128,41.19a4,4,0,0,0,2.66-.78,2.55,2.55,0,0,0,.92-2.06v-.06a2.5,2.5,0,0,0-1-2.15,4.53,4.53,0,0,0-2.7-.71h-4.63v5.76Z"/></g></g></svg>